<?xml version="1.0" encoding="utf-8"?>
<!-- Generator: Adobe Illustrator 15.0.0, SVG Export Plug-In . SVG Version: 6.00 Build 0)  -->
<!DOCTYPE svg PUBLIC "-//W3C//DTD SVG 1.1//EN" "http://www.w3.org/Graphics/SVG/1.1/DTD/svg11.dtd">
<svg version="1.1" id="Layer_1" xmlns="http://www.w3.org/2000/svg" xmlns:xlink="http://www.w3.org/1999/xlink" x="0px" y="0px"
	 width="200px" height="150px" viewBox="0 0 200 150" enable-background="new 0 0 200 150" xml:space="preserve">
<path fill="#FFFFFF" d="M36.719,56.138c1.402,0.076,2.776,0.133,4.122,0.17c1.346,0.039,2.72,0.057,4.122,0.057
	c1.592,0,3.146-0.019,4.662-0.057c1.516-0.037,3.07-0.094,4.662-0.17v0.682c-0.986,0.114-1.811,0.266-2.474,0.455
	c-0.664,0.19-1.203,0.474-1.62,0.853c-0.417,0.38-0.721,0.873-0.91,1.479C49.094,60.213,49,60.99,49,61.937v21.604
	c0,1.819-0.418,3.412-1.252,4.775c-0.834,1.365-1.933,2.502-3.297,3.412c-1.364,0.909-2.919,1.592-4.662,2.046
	c-1.743,0.455-3.524,0.683-5.344,0.683c-0.986,0-2.151-0.152-3.497-0.455c-1.346-0.304-2.644-0.795-3.895-1.479
	c-1.251-0.682-2.312-1.592-3.184-2.729s-1.308-2.539-1.308-4.207c0-1.023,0.303-1.99,0.909-2.9c0.606-0.909,1.573-1.363,2.9-1.363
	c0.91,0,1.714,0.312,2.416,0.938c0.701,0.625,1.052,1.279,1.052,1.962c0,0.53-0.066,1.156-0.199,1.876
	c-0.133,0.721-0.389,1.289-0.768,1.705c0.151,0.986,0.436,1.791,0.854,2.416c0.416,0.626,0.918,1.119,1.506,1.479
	c0.588,0.361,1.231,0.607,1.934,0.74c0.7,0.133,1.411,0.198,2.132,0.198c1.895,0,3.411-0.341,4.549-1.023
	c1.137-0.683,1.998-1.544,2.586-2.587c0.588-1.042,0.976-2.197,1.166-3.469c0.189-1.269,0.283-2.51,0.283-3.723V62.96
	c0-1.251-0.141-2.246-0.426-2.985c-0.284-0.739-0.72-1.327-1.308-1.763c-0.588-0.436-1.336-0.748-2.246-0.938
	c-0.909-0.189-1.971-0.341-3.184-0.455V56.138z"/>
<path fill="#FFFFFF" d="M89.8,55.693c10.372,0,19.44,8.391,19.44,19.23c0,9.173-7.089,19.231-19.596,19.231
	c-11.258,0-19.388-8.495-19.388-18.814C70.257,63.718,79.534,55.693,89.8,55.693 M89.645,57.882
	c-7.297,0-14.176,4.482-14.176,16.572c0,8.442,5.524,17.719,14.487,17.719c9.643,0,14.072-7.087,14.072-16.677
	C104.028,67.106,98.765,57.882,89.645,57.882"/>
<path fill="#FFFFFF" d="M130.559,91.913h1.251c2.605,0,3.179-0.99,3.179-3.7v-8.234l-10.007-17.928
	c-2.032-3.648-2.709-4.117-5.264-4.117h-0.469v-1.563c2.241,0.052,4.43,0.156,6.566,0.156c2.189,0,4.43-0.104,6.619-0.156v1.563
	h-0.938c-1.094,0-1.928,0.365-1.928,1.668c0,0.729,0.625,2.137,1.146,3.075l7.713,13.916l7.192-13.759
	c0.416-0.782,1.406-2.762,1.406-3.7c0-0.886-0.625-1.199-2.032-1.199h-0.99v-1.563c2.137,0.052,3.544,0.156,5.159,0.156
	c1.72,0,3.492-0.104,5.16-0.156v1.563h-1.304c-2.137,0-2.605,0.678-4.221,3.7l-9.225,17.25v9.329c0,3.074,1.146,3.7,3.179,3.7h1.043
	v1.563c-2.189-0.053-4.43-0.156-6.619-0.156c-2.293,0-4.69,0.104-6.618,0.156V91.913z"/>
<path fill="#FFFFFF" d="M168.135,56.783h0.625l9.225,2.241l-0.313,1.303c-0.572-0.157-1.459-0.313-1.928-0.313
	c-2.032,0-2.762,0.73-3.075,5.159l-1.146,16.312l-0.417,0.157l-0.938-1.147L168.135,56.783z M173.606,91.7
	c0,1.511-1.198,2.709-2.71,2.709c-1.511,0-2.71-1.198-2.71-2.709c0-1.512,1.199-2.71,2.71-2.71
	C172.408,88.99,173.606,90.188,173.606,91.7"/>
</svg>
