<?xml version="1.0" encoding="utf-8"?>
<!-- Generator: Adobe Illustrator 15.1.0, SVG Export Plug-In . SVG Version: 6.00 Build 0)  -->
<!DOCTYPE svg PUBLIC "-//W3C//DTD SVG 1.1//EN" "http://www.w3.org/Graphics/SVG/1.1/DTD/svg11.dtd">
<svg version="1.1" id="Layer_1" xmlns="http://www.w3.org/2000/svg" xmlns:xlink="http://www.w3.org/1999/xlink" x="0px" y="0px"
	 width="262.963px" height="182.431px" viewBox="0 0 262.963 182.431" enable-background="new 0 0 262.963 182.431"
	 xml:space="preserve">
<g>
	<path d="M87.433,132.367c3.596,0,6.146-2.678,6.146-6.222c0-3.591-2.55-6.239-6.146-6.239c-3.541,0-6.119,2.648-6.119,6.239
		C81.313,129.688,83.892,132.367,87.433,132.367 M87.409,117.453c4.979,0,8.696,3.716,8.696,8.692c0,4.932-3.717,8.65-8.696,8.65
		c-4.931,0-8.646-3.719-8.646-8.65C78.763,121.169,82.478,117.453,87.409,117.453"/>
	<polygon points="120.662,121.789 114.27,129.466 113.775,129.466 107.432,121.789 107.432,134.549 104.853,134.549 
		104.853,117.699 107.186,117.699 114.049,125.949 120.884,117.699 123.24,117.699 123.24,134.549 120.662,134.549 	"/>
	<path d="M135.633,119.956v7.432h4.656c2.058,0,3.716-1.388,3.716-3.666c0-2.506-1.658-3.766-3.716-3.766h-1.859H135.633z
		 M133.056,117.699h7.631c3.217,0,5.993,1.907,5.993,6.023c0,3.713-2.776,5.919-5.993,5.919h-5.054v4.905h-2.577V117.699z"/>
	<path d="M156.718,128.87h7.058l-3.416-8.597L156.718,128.87z M158.87,117.699h2.972l6.69,16.847h-2.598l-1.489-3.715h-8.397
		l-1.537,3.715h-2.624L158.87,117.699z"/>
	<path d="M178.3,126.667c-2.452-0.62-3.816-2.079-3.816-4.285c0-2.625,2.082-4.902,6.643-4.902c2.328,0,4.629,0.641,5.896,1.334
		l-0.768,2.426c-1.192-0.742-3.349-1.385-5.231-1.385c-2.698,0-3.885,1.064-3.885,2.328c0,1.142,0.815,1.732,2.277,2.105
		l3.345,0.893c2.975,0.818,4.559,2.082,4.559,4.46c0,3.12-2.752,5.151-6.741,5.151c-2.426,0-4.756-0.839-5.82-1.459l0.619-2.455
		c1.142,0.721,3.146,1.539,5.252,1.539c2.452,0,4.013-1.017,4.013-2.58c0-1.189-1.065-1.83-2.948-2.301L178.3,126.667z"/>
	<path d="M197.585,126.667c-2.453-0.62-3.814-2.079-3.814-4.285c0-2.625,2.079-4.902,6.641-4.902c2.327,0,4.632,0.641,5.895,1.334
		l-0.768,2.426c-1.192-0.742-3.346-1.385-5.226-1.385c-2.704,0-3.891,1.064-3.891,2.328c0,1.142,0.815,1.732,2.28,2.105l3.343,0.893
		c2.974,0.818,4.558,2.082,4.558,4.46c0,3.12-2.749,5.151-6.74,5.151c-2.423,0-4.757-0.839-5.821-1.459l0.619-2.455
		c1.142,0.721,3.149,1.539,5.252,1.539c2.453,0,4.016-1.017,4.016-2.58c0-1.189-1.067-1.83-2.948-2.301L197.585,126.667z"/>
	<path d="M69.469,130.466c-0.004,0.006-0.01,0.012-0.016,0.018c-2.504,2.506-6.201,2.595-8.742,0.053
		c-2.504-2.505-2.435-6.218,0.069-8.724c2.542-2.539,6.235-2.595,8.742-0.086l1.735-1.735c-0.006-0.006-0.012-0.012-0.018-0.018
		c-3.487-3.487-8.744-3.487-12.262,0.036c-3.489,3.484-3.489,8.742,0,12.227c3.519,3.523,8.775,3.523,12.262,0.033
		c0.006-0.003,0.012-0.012,0.018-0.018L69.469,130.466z"/>
	<path d="M68.05,164.319c3.596,0,6.143-2.678,6.143-6.219c0-3.594-2.547-6.245-6.143-6.245c-3.541,0-6.118,2.651-6.118,6.245
		C61.933,161.642,64.51,164.319,68.05,164.319 M68.026,149.403c4.98,0,8.696,3.716,8.696,8.697c0,4.929-3.716,8.645-8.696,8.645
		c-4.931,0-8.646-3.716-8.646-8.645C59.381,153.119,63.095,149.403,68.026,149.403"/>
	<path d="M17.529,151.906v7.431h4.662c2.052,0,3.714-1.388,3.714-3.668c0-2.5-1.662-3.763-3.714-3.763H17.529z M14.954,149.652
		h7.631c3.219,0,5.995,1.906,5.995,6.017c0,3.719-2.775,5.922-5.995,5.922h-5.056v4.908h-2.575V149.652z"/>
	<path d="M87.4,151.906v12.336h4.164c3.593,0,6.143-2.18,6.143-6.142c0-4.015-2.55-6.171-6.143-6.194H87.4z M84.824,149.652h6.839
		c4.978,0.023,8.694,2.972,8.694,8.448c0,5.424-3.717,8.398-8.694,8.398h-6.839V149.652z"/>
	<path d="M111.036,159.364c0,3.019,1.536,5.003,4.831,5.003c3.343,0,4.907-2.133,4.907-5.03v-9.685h2.574v9.884
		c0,3.891-2.553,7.232-7.481,7.232c-4.88,0-7.406-3.021-7.406-7.232v-9.884h2.575V159.364z"/>
	<polygon points="161.622,152.227 161.622,166.496 159.042,166.496 159.042,152.227 153.002,152.227 153.002,149.652 
		167.366,149.652 167.366,152.227 	"/>
	<rect x="175.187" y="149.649" width="2.58" height="16.847"/>
	<path d="M194.533,164.319c3.597,0,6.147-2.678,6.147-6.219c0-3.594-2.551-6.245-6.147-6.245c-3.541,0-6.118,2.651-6.118,6.245
		C188.415,161.642,190.992,164.319,194.533,164.319 M194.513,149.403c4.979,0,8.694,3.716,8.694,8.697
		c0,4.929-3.716,8.645-8.694,8.645c-4.932,0-8.645-3.716-8.645-8.645C185.868,153.119,189.581,149.403,194.513,149.403"/>
	<polygon points="213.177,153.763 213.177,166.496 210.603,166.496 210.603,149.652 212.856,149.652 223.556,162.434 
		223.556,149.652 226.136,149.652 226.136,166.496 223.882,166.496 	"/>
	<path d="M238.991,158.62c-2.452-0.62-3.816-2.082-3.816-4.285c0-2.628,2.082-4.908,6.64-4.908c2.331,0,4.635,0.644,5.898,1.341
		l-0.769,2.426c-1.189-0.745-3.342-1.389-5.225-1.389c-2.705,0-3.891,1.068-3.891,2.328c0,1.142,0.815,1.735,2.277,2.108
		l3.345,0.893c2.975,0.818,4.558,2.082,4.558,4.457c0,3.123-2.749,5.154-6.74,5.154c-2.426,0-4.754-0.842-5.821-1.459l0.62-2.455
		c1.142,0.721,3.146,1.536,5.255,1.536c2.449,0,4.009-1.018,4.009-2.577c0-1.187-1.064-1.833-2.947-2.302L238.991,158.62z"/>
	<path d="M144.144,162.419c-0.003,0.002-0.009,0.012-0.015,0.018c-2.506,2.506-6.2,2.592-8.742,0.053
		c-2.506-2.506-2.435-6.218,0.071-8.724c2.542-2.539,6.236-2.595,8.742-0.089l1.735-1.735c-0.009-0.006-0.016-0.012-0.019-0.018
		c-3.487-3.484-8.745-3.484-12.265,0.038c-3.484,3.484-3.484,8.739,0,12.227c3.52,3.521,8.777,3.521,12.265,0.036
		c0.003-0.009,0.01-0.015,0.019-0.021L144.144,162.419z"/>
	<path d="M50.637,163.602c-0.565-0.566-1.163-1.516-1.831-2.286l-0.997-1.184c-0.099-0.121-0.262-0.293-0.419-0.456
		c1.729-0.84,2.942-2.471,2.942-4.624c0-3.961-3.145-5.399-6.343-5.399h-7.307v16.844h2.576v-6.195h2.283h0.269h2.7
		c0.215,0.036,0.608,0.169,0.893,0.356c0.353,0.21,0.495,0.382,0.866,0.812l0.95,1.136c0.31,0.382,0.609,0.771,0.905,1.162
		c0.261,0.362,0.649,0.884,1.042,1.272c0.397,0.406,0.832,0.792,1.359,1.115c0.519,0.326,1.176,0.607,1.962,0.622v-2.069
		C52.022,164.723,51.232,164.23,50.637,163.602z M39.257,158.249v-6.343h5.004c1.883,0,3.369,1.04,3.369,3.193
		c0,1.984-1.486,3.149-3.369,3.149H39.257z"/>
	<g>
		<defs>
			<path id="SVGID_1_" d="M125.883,26.495l4.083-0.869c0.333-0.073,0.649,0.095,0.811,0.376c0.043,0.055,0.075,0.122,0.084,0.203
				c0.083,0.38-0.136,0.753-0.496,0.875l-5.812,1.993L122.026,34l7.94-1.689c0.333-0.07,0.649,0.093,0.811,0.376
				c0.043,0.058,0.075,0.125,0.084,0.209c0.083,0.377-0.136,0.748-0.496,0.872l-9.98,3.419l-2.22,4.318l11.8-2.507
				c0.333-0.071,0.649,0.096,0.811,0.376c0.043,0.057,0.075,0.125,0.084,0.206c0.083,0.38-0.136,0.75-0.496,0.875l-14.152,4.852
				l-1.904,3.705l15.656-3.326c0.333-0.073,0.649,0.092,0.811,0.374c0.043,0.058,0.075,0.122,0.084,0.208
				c0.083,0.379-0.136,0.751-0.496,0.87l-18.322,6.284l-1.591,3.098l19.513-4.149c0.333-0.066,0.649,0.098,0.811,0.377
				c0.043,0.055,0.075,0.125,0.084,0.209c0.083,0.376-0.136,0.747-0.496,0.872l-22.494,7.71l-1.278,2.486l23.373-4.967
				c0.333-0.07,0.649,0.096,0.811,0.376c0.043,0.053,0.075,0.125,0.084,0.206c0.083,0.379-0.136,0.753-0.496,0.875l-26.664,9.136
				l-0.965,1.88l27.229-5.786c0.333-0.073,0.649,0.092,0.808,0.374c0.046,0.058,0.078,0.122,0.087,0.208
				c0.083,0.38-0.136,0.752-0.496,0.871l-30.833,10.57l-0.652,1.266l31.085-6.604c0.333-0.067,0.649,0.098,0.808,0.374
				c0.043,0.058,0.078,0.127,0.087,0.212c0.083,0.377-0.136,0.748-0.496,0.872L95.364,85.886l-1.333,2.59l37.451-10.312
				l37.451,10.312l-37.451-72.879L125.883,26.495z"/>
		</defs>
		<clipPath id="SVGID_2_">
			<use xlink:href="#SVGID_1_"  overflow="visible"/>
		</clipPath>
		
			<linearGradient id="SVGID_3_" gradientUnits="userSpaceOnUse" x1="-15.8843" y1="234.4404" x2="-12.8487" y2="234.4404" gradientTransform="matrix(30.9975 0 0 -30.9975 575.8857 7319.0889)">
			<stop  offset="0" style="stop-color:#F9EC23"/>
			<stop  offset="0.5092" style="stop-color:#D1A92B"/>
			<stop  offset="1" style="stop-color:#F9EC23"/>
		</linearGradient>
		<rect x="94.031" y="15.597" clip-path="url(#SVGID_2_)" fill="url(#SVGID_3_)" width="74.902" height="72.879"/>
	</g>
</g>
</svg>
