<?xml version="1.0" encoding="utf-8"?>
<!-- Generator: Adobe Illustrator 15.0.0, SVG Export Plug-In . SVG Version: 6.00 Build 0)  -->
<!DOCTYPE svg PUBLIC "-//W3C//DTD SVG 1.1//EN" "http://www.w3.org/Graphics/SVG/1.1/DTD/svg11.dtd">
<svg version="1.1" id="Layer_1" xmlns="http://www.w3.org/2000/svg" xmlns:xlink="http://www.w3.org/1999/xlink" x="0px" y="0px"
	 width="216px" height="144px" viewBox="0 0 216 144" enable-background="new 0 0 216 144" xml:space="preserve">
<g>
	<g>
		<path fill="#FFFFFF" d="M18.313,16.534c0-0.845,0.604-1.691,1.449-1.691h43.474c0.846,0,1.449,0.604,1.449,1.329v21.013
			c0,0.845-0.725,1.57-1.57,1.57H43.553c-0.725,0-1.33,0.483-1.33,1.328v7.246c0,0.604,0.363,1.087,1.208,1.087h9.177
			c0.605,0,1.329,0.604,1.329,1.208V71.48c0,0.725-0.604,1.329-1.449,1.329h-9.058c-0.604,0-1.208,0.845-1.208,1.569v29.346
			c0,1.087-0.604,1.69-1.569,1.69H19.642c-0.604,0-1.328-0.725-1.328-1.569V16.534z"/>
	</g>
	<path fill="#FFFFFF" d="M81.66,52.338c0-1.812,0.605-1.812,5.917-1.812c2.899,0,4.831-1.569,4.831-3.501
		c0-7.004,0-7.729-1.932-7.729c-1.933,0-1.933,0.604-1.933,6.038c0,0.604-0.482,1.208-1.328,1.208l-20.046-0.845
		c-0.725,0-0.966-0.362-0.966-0.966c0-8.937,0-28.259,24.274-28.259c14.37,0,24.394,8.937,24.394,23.428
		c0,9.902-5.557,16.544-10.145,18.838c-0.725,0.483-1.328,0.725-1.328,0.967c0,0.241,0.604,0.483,1.57,0.845
		c4.347,1.449,10.869,7.97,10.869,18.355c0,15.458-10.266,26.931-25.36,26.931c-14.854,0-25.241-11.231-25.241-26.688
		c0-5.192,0-5.917,0.726-5.917l21.736-0.846c0.605,0,0.846,0.362,0.846,0.966c0,7.004,0,7.729,1.933,7.729
		c0.965,0,1.932-0.846,1.932-2.415c0-8.815,0-10.748-4.831-10.748c-5.312,0-5.917,0-5.917-1.329V52.338z"/>
	<polygon fill="#FFFFFF" points="166.139,84.074 165.598,84.029 165.73,84.658 166.318,85.291 167.175,85.832 167.763,85.879 
		168.031,85.201 168.212,83.623 167.763,83.084 167.131,83.759 	"/>
	<path fill="#FFFFFF" d="M141.249,15.292l1.395,5.233l0.903,4.057l1.037,3.7l0.767,3.607l0.812,3.79l0.768,3.201l0.72,3.969
		l0.901,3.52l0.586,3.88l0.589,3.247l0.675,3.609l0.812,2.299l0.405,2.481l0.587,3.112l0.497,2.568l0.358,1.942l0.453,3.876
		l0.226,1.533l0.225,2.706l0.182,1.174l0.586,0.539l0.811,0.811l0.811,0.502l0.767,0.088l0.541-0.767l0.045-0.634l-0.27-0.632
		l-0.316-0.583v-0.766l-0.044-0.995l0.18-1.126l0.405-0.768l0.585-0.632l0.859-0.181l0.944,0.135l0.993,0.588l0.362,0.721v1.127
		l-0.046,0.903l-0.498,0.945l-0.767,0.631v1.04l0.363,0.766l0.901,0.543l1.216,0.359h1.354l1.216-0.226l0.95-0.313l0.36-1.039
		l0.045-0.765l-0.045-0.903l-0.68-1.49l-0.312-1.125l0.089-0.994l0.136-0.945l0.54-0.812l0.497-0.497l0.722-0.137h0.991l0.767,0.541
		l0.451,0.994l0.225,0.855l0.045,1.128l0.225,0.991l0.633,0.229l0.542-0.633l0.133-0.494v-0.994l0.183-0.904l0.09-4.599l0.136-2.436
		l0.089-2.21l0.092-2.797l0.269-3.518l-0.088-2.751l0.494-3.563l0.315-4.238l0.091-3.429l0.044-4.057l0.317-3.114l0.045-3.877
		l0.405-5.956l0.271-4.461l0.405-3.655l0.043-3.954h-11.12c-0.725,0-1.207,0.604-1.328,1.329l-2.898,23.79
		c0,0.845-0.241,1.328-0.482,1.328c-0.242,0-0.483-0.362-0.604-1.208l-3.624-24.032c-0.119-0.725-0.604-1.208-1.207-1.208h-12.15
		L141.249,15.292z"/>
	<polygon fill="#FFFFFF" points="149.454,83.084 149.95,82.721 150.626,81.639 151.168,80.329 151.709,79.426 152.385,78.752 
		152.158,76.36 152.026,74.377 151.845,72.887 151.482,71.085 150.807,71.941 150.132,72.887 149.634,73.654 148.913,74.604 
		148.237,75.144 147.649,76.271 147.472,77.082 147.108,77.761 146.387,78.704 145.757,79.336 145.171,80.105 144.358,80.558 
		143.908,81.143 143.547,81.908 143.592,82.766 143.728,84.029 144.448,84.93 145.215,85.968 146.116,87.006 146.93,87.549 
		147.649,87.906 148.868,88.223 150.354,88.448 151.981,88.766 153.241,88.405 153.739,88.178 153.691,86.513 153.514,85.201 
		152.835,84.976 152.069,84.976 151.618,85.472 151.077,86.145 150.492,86.329 149.726,86.329 148.731,85.742 148.505,84.434 
		148.689,83.576 	"/>
	<polygon fill="#FFFFFF" points="158.925,105.18 159.013,103.739 158.88,102.609 158.834,101.708 158.789,100.985 158.744,100.176 
		158.472,99.319 158.201,100.219 157.887,100.938 157.524,102.157 157.393,103.828 157.615,105.044 157.714,105.836 
		158.716,105.836 	"/>
	<path fill="#FFFFFF" d="M167.131,104.459l0.18-0.902l0.18-1.399l0.857-1.396l0.272-1.31l0.403-1.263l0.362-1.578l0.134-1.172
		l0.136-1.399v-1.128v-0.81l-0.136-1.443l-0.227-0.948l-0.45-1.083l-5.726-2.931l-0.902,0.677l-0.271,1.308l-0.182,1.58l0.047,2.297
		l0.135,2.891l0.134,1.757l0.272,2.21l0.088,1.442l0.048,2.704l-0.09,2.753l-0.053,0.521h2.764c0.069,0,0.135-0.016,0.203-0.022
		h1.626L167.131,104.459z"/>
	<path fill="#FFFFFF" d="M135.7,104.779l-0.043-0.86v-0.904l-0.134-1.441l-0.453-1.13l-0.496-1.124l-0.225-1.085l-0.136-1.894
		l0.179-1.805l0.315-1.124l0.181-0.904l0.361-0.993l0.812-1.22l0.495-1.396l0.045-1.622l0.451-1.397l0.317-1.85l0.495-2.03
		l0.722-0.991l1.396-0.271l1.533-0.722l0.089-0.766l-0.132-0.992l0.043-0.767l0.045-0.947l0.452-1.083l0.494-0.813l0.496-0.674
		l0.723-0.451h1.037h0.812l0.856,0.18l0.586-0.227l0.453-0.588l1.033-1.128l0.769-1.397l0.812-1.082l0.721-0.766l-0.181-1.127
		v-1.761l-0.226-1.533l-0.721-2.844l-0.272-2.116l-0.583-2.121l-0.406-2.031l-0.407-2.072l-0.271-2.44l-0.403-2.387l-0.631-3.024
		l-0.678-2.885l-0.539-2.705l-0.678-3.206l-0.948-3.292l-0.765-2.887l-0.589-3.471l-0.764-2.841l-0.588-3.336l-0.992-1.806
		l-0.451-2.525l-0.172-0.842h-18.513c-0.604,0-0.966,0.604-0.966,1.208v88.277c0,0.484,0.482,1.088,0.966,1.088h14.633
		L135.7,104.779z"/>
	<path fill="#FFFFFF" d="M154.46,105.676l-0.09-1.172l0.045-1.171l0.045-1.718l-0.226-1.126l-0.315-1.127l-0.228-1.398v-0.769
		l-0.09-1.17l0.225-1.217l-0.087-1.717v-1.217l-0.09-1.081l-0.544-0.048h-0.947l-0.945,0.137l-1.984-0.089h-0.945l-1.76-0.544
		l-3.472-0.812l-2.661,4.512l-0.45,0.949v1.574l0.18,1.313l0.271,1.214l0.183,1.761v2.253l-0.229,1.718v1.104h1.214
		c0.054,0,0.089-0.019,0.139-0.022h9.656c0.037,0.004,0.07,0.022,0.108,0.022h2.99L154.46,105.676z"/>
	<g>
		<path fill="#FFFFFF" d="M27.292,124.31c0.17,0,0.268,0.122,0.268,0.243v4.528c0,0.146-0.123,0.268-0.268,0.268h-8.715
			c-0.146,0-0.268-0.146-0.268-0.316v-17.6c0-0.146,0.146-0.341,0.316-0.341h4.114c0.146,0,0.243,0.122,0.243,0.268v12.78
			c0,0.097,0.073,0.17,0.146,0.17H27.292z"/>
		<path fill="#FFFFFF" d="M28.435,111.408c0-0.146,0.146-0.316,0.316-0.316h8.641c0.147,0,0.243,0.122,0.243,0.268v4.382
			c0,0.146-0.121,0.244-0.268,0.244h-4.065c-0.098,0-0.17,0.072-0.17,0.17v1.363c0,0.097,0.097,0.17,0.17,0.17h1.923
			c0.098,0,0.169,0.073,0.169,0.171v4.43c0,0.122-0.096,0.22-0.194,0.22h-1.972c-0.097,0-0.17,0.073-0.17,0.194v1.437
			c0,0.097,0.073,0.17,0.146,0.17h4.211c0.171,0,0.268,0.122,0.268,0.243v4.528c0,0.146-0.121,0.268-0.268,0.268h-8.714
			c-0.146,0-0.268-0.146-0.268-0.316V111.408z"/>
		<path fill="#FFFFFF" d="M45.059,116.982c-0.146,0-0.243-0.072-0.292-0.268c-0.146-0.584-0.39-0.876-0.729-0.876
			c-0.244,0-0.365,0.194-0.365,0.438c0,0.778,1.144,1.654,2.604,2.652c1.582,1.072,2.776,2.824,2.776,4.625
			c0,3.263-1.948,5.867-5.137,5.867c-3.7,0-5.404-2.679-5.404-6.572c0-0.122,0.098-0.243,0.292-0.243l3.36-0.171
			c0.17,0,0.268,0.098,0.292,0.316c0.096,0.974,0.511,2.021,1.095,2.021c0.341,0,0.56-0.22,0.56-0.779
			c0-0.584-1.362-1.655-2.994-2.969c-1.631-1.314-2.434-3.141-2.434-4.796c0-2.482,1.85-5.186,5.111-5.186
			c3.262,0,5.282,2.557,5.282,5.453c0,0.17-0.096,0.316-0.292,0.316L45.059,116.982z"/>
		<path fill="#FFFFFF" d="M52.337,111.433c0-0.17,0.121-0.341,0.292-0.341h8.763c0.17,0,0.292,0.122,0.292,0.268v4.236
			c0,0.17-0.146,0.316-0.316,0.316h-3.944c-0.145,0-0.268,0.098-0.268,0.268v1.46c0,0.122,0.074,0.22,0.245,0.22h1.85
			c0.121,0,0.268,0.121,0.268,0.243v4.406c0,0.146-0.122,0.268-0.292,0.268h-1.825c-0.122,0-0.245,0.17-0.245,0.316v5.915
			c0,0.219-0.121,0.341-0.316,0.341h-4.235c-0.122,0-0.268-0.146-0.268-0.316V111.433z"/>
		<path fill="#FFFFFF" d="M62.877,129.349c-0.17,0-0.316-0.17-0.316-0.365v-17.648c0-0.121,0.098-0.243,0.219-0.243h4.163
			c0.171,0,0.292,0.098,0.292,0.243v17.697c0,0.146-0.121,0.316-0.292,0.316H62.877z"/>
		<path fill="#FFFFFF" d="M77.191,124.31c0.169,0,0.268,0.122,0.268,0.243v4.528c0,0.146-0.123,0.268-0.268,0.268h-8.715
			c-0.146,0-0.268-0.146-0.268-0.316v-17.6c0-0.146,0.146-0.341,0.316-0.341h4.114c0.146,0,0.243,0.122,0.243,0.268v12.78
			c0,0.097,0.073,0.17,0.146,0.17H77.191z"/>
		<path fill="#FFFFFF" d="M78.529,129.349c-0.098,0-0.194-0.122-0.194-0.219v-17.795c0-0.121,0.072-0.243,0.194-0.243h6.523
			c0.123,0,0.22,0.098,0.243,0.243l0.731,4.845c0.024,0.17,0.073,0.243,0.122,0.243s0.097-0.097,0.097-0.268l0.585-4.796
			c0.024-0.146,0.121-0.268,0.268-0.268h6.767c0.171,0,0.268,0.098,0.268,0.268v17.746c0,0.146-0.121,0.243-0.268,0.243h-4.406
			c-0.146,0-0.268-0.098-0.268-0.268v-7.619c0-0.194-0.024-0.268-0.073-0.268s-0.097,0.098-0.17,0.486l-1.266,7.474
			c-0.024,0.146-0.146,0.194-0.268,0.194h-2.75c-0.123,0-0.22-0.098-0.269-0.268l-1.119-6.962c-0.073-0.414-0.171-0.486-0.243-0.486
			c-0.073,0-0.122,0.121-0.122,0.316v7.132c0,0.17-0.073,0.268-0.243,0.268H78.529z"/>
		<path fill="#FFFFFF" d="M101.506,116.982c-0.146,0-0.243-0.072-0.292-0.268c-0.146-0.584-0.39-0.876-0.729-0.876
			c-0.244,0-0.365,0.194-0.365,0.438c0,0.778,1.144,1.654,2.604,2.652c1.583,1.072,2.776,2.824,2.776,4.625
			c0,3.263-1.947,5.867-5.136,5.867c-3.7,0-5.404-2.679-5.404-6.572c0-0.122,0.098-0.243,0.292-0.243l3.36-0.171
			c0.17,0,0.268,0.098,0.292,0.316c0.096,0.974,0.511,2.021,1.095,2.021c0.341,0,0.56-0.22,0.56-0.779
			c0-0.584-1.362-1.655-2.994-2.969c-1.631-1.314-2.434-3.141-2.434-4.796c0-2.482,1.85-5.186,5.111-5.186
			c3.262,0,5.282,2.557,5.282,5.453c0,0.17-0.097,0.316-0.292,0.316L101.506,116.982z"/>
		<path fill="#FFFFFF" d="M109.076,129.349c-0.195,0-0.291-0.122-0.291-0.292v-17.6c0-0.194,0.121-0.365,0.316-0.365h4.356
			c3.87,0,6.158,2.459,6.158,6.889v4.528c0,3.942-2.216,6.84-5.988,6.84H109.076z M114.725,116.569c0-0.243-0.074-0.438-0.221-0.56
			c-0.096-0.073-0.292-0.146-0.412-0.146c-0.099,0-0.147,0.073-0.147,0.219v8.082c0,0.146,0.049,0.194,0.147,0.194
			c0.145,0,0.633,0,0.633-0.706V116.569z"/>
		<path fill="#FFFFFF" d="M124.824,111.092c0.147,0,0.268,0.098,0.268,0.268v12.366c0,0.316,0.123,0.535,0.415,0.535
			s0.414-0.219,0.414-0.511v-12.415c0-0.121,0.121-0.243,0.268-0.243h4.114c0.121,0,0.268,0.073,0.268,0.243v13.048
			c0,2.581-1.85,4.966-5.063,4.966c-3.237,0-5.063-2.409-5.063-4.966v-13.023c0-0.17,0.098-0.268,0.243-0.268H124.824z"/>
		<path fill="#FFFFFF" d="M137.143,118.564c0-0.364,0.12-0.364,1.192-0.364c0.584,0,0.974-0.316,0.974-0.706
			c0-1.412,0-1.558-0.39-1.558s-0.39,0.121-0.39,1.217c0,0.121-0.098,0.243-0.268,0.243l-4.041-0.17
			c-0.146,0-0.194-0.073-0.194-0.195c0-1.801,0-5.696,4.893-5.696c2.896,0,4.918,1.803,4.918,4.723c0,1.996-1.121,3.336-2.046,3.798
			c-0.146,0.098-0.268,0.146-0.268,0.195s0.121,0.097,0.316,0.17c0.876,0.292,2.191,1.606,2.191,3.699
			c0,3.115-2.07,5.429-5.112,5.429c-2.995,0-5.088-2.264-5.088-5.38c0-1.047,0-1.192,0.146-1.192l4.382-0.17
			c0.121,0,0.17,0.072,0.17,0.194c0,1.411,0,1.558,0.39,1.558c0.194,0,0.39-0.171,0.39-0.487c0-1.776,0-2.166-0.974-2.166
			c-1.072,0-1.192,0-1.192-0.268V118.564z"/>
		<path fill="#FFFFFF" d="M147.512,129.349c-0.098,0-0.195-0.122-0.195-0.219v-17.795c0-0.121,0.073-0.243,0.195-0.243h6.523
			c0.122,0,0.219,0.098,0.243,0.243l0.73,4.845c0.024,0.17,0.073,0.243,0.122,0.243c0.048,0,0.097-0.097,0.097-0.268l0.584-4.796
			c0.024-0.146,0.122-0.268,0.268-0.268h6.768c0.17,0,0.268,0.098,0.268,0.268v17.746c0,0.146-0.122,0.243-0.268,0.243h-4.405
			c-0.147,0-0.268-0.098-0.268-0.268v-7.619c0-0.194-0.024-0.268-0.073-0.268c-0.05,0-0.099,0.098-0.17,0.486l-1.267,7.474
			c-0.024,0.146-0.146,0.194-0.269,0.194h-2.75c-0.121,0-0.219-0.098-0.268-0.268l-1.119-6.962
			c-0.073-0.414-0.171-0.486-0.244-0.486c-0.072,0-0.121,0.121-0.121,0.316v7.132c0,0.17-0.073,0.268-0.243,0.268H147.512z"/>
		<path fill="#FFFFFF" d="M171.902,111.092c0.169,0,0.292,0.146,0.316,0.316l3.334,17.405c0.049,0.268-0.073,0.535-0.341,0.535
			h-3.943c-0.146,0-0.293-0.098-0.316-0.243l-0.487-3.652c-0.024-0.121-0.122-0.194-0.243-0.194h-1.314
			c-0.098,0-0.194,0.098-0.219,0.243l-0.463,3.579c-0.024,0.17-0.194,0.268-0.316,0.268h-4.017c-0.219,0-0.341-0.17-0.292-0.414
			l3.263-17.551c0.024-0.121,0.146-0.292,0.292-0.292H171.902z M169.759,120.27c-0.049-0.341-0.097-0.56-0.17-0.56
			s-0.122,0.17-0.171,0.56l-0.316,2.312c-0.023,0.121,0.024,0.243,0.146,0.243c0.779,0,0.852,0,0.827-0.219L169.759,120.27z"/>
		<path fill="#FFFFFF" d="M181.76,111.092c2.142,0,4.697,1.656,4.697,4.625c0,1.314-0.242,3.726-2.556,4.064v0.049
			c2.971,0.854,2.971,2.436,2.971,4.918c0,0.292,0.122,0.584,0.657,0.803c0.121,0.073,0.219,0.243,0.219,0.341
			c0,3.311-2.435,3.506-3.237,3.506c-1.753,0-2.921-1.217-2.921-3.506v-3.748c0-0.779-0.341-1.168-0.608-1.168
			c-0.146,0-0.171,0.121-0.171,0.292v7.789c0,0.146-0.121,0.292-0.292,0.292h-4.162c-0.171,0-0.293-0.122-0.293-0.316v-17.648
			c0-0.17,0.122-0.292,0.269-0.292H181.76z M180.811,118.662c0,0.172,0.049,0.219,0.171,0.219c0.584,0,0.584-0.681,0.584-1.801
			c0-0.56-0.341-0.876-0.56-0.876c-0.122,0-0.195,0.073-0.195,0.219V118.662z"/>
		<path fill="#FFFFFF" d="M194.782,116.982c-0.147,0-0.243-0.072-0.292-0.268c-0.147-0.584-0.391-0.876-0.731-0.876
			c-0.243,0-0.365,0.194-0.365,0.438c0,0.778,1.146,1.654,2.605,2.652c1.582,1.072,2.774,2.824,2.774,4.625
			c0,3.263-1.946,5.867-5.136,5.867c-3.7,0-5.403-2.679-5.403-6.572c0-0.122,0.098-0.243,0.292-0.243l3.358-0.171
			c0.171,0,0.268,0.098,0.292,0.316c0.098,0.974,0.512,2.021,1.096,2.021c0.341,0,0.56-0.22,0.56-0.779
			c0-0.584-1.363-1.655-2.993-2.969c-1.631-1.314-2.435-3.141-2.435-4.796c0-2.482,1.85-5.186,5.111-5.186
			c3.263,0,5.282,2.557,5.282,5.453c0,0.17-0.097,0.316-0.292,0.316L194.782,116.982z"/>
	</g>
	<g>
		<path fill="#FFFFFF" d="M184.226,99.206l0.18-9.177l0.879-7.233l0.529-9.531l0.354-5.293l0.53-8.297l0.885-8.645l0.702-5.471
			l1.06-12.179l1.058-8.467l0.176-7.237l0.319-2.411h-14.649l-0.189,4.27l-0.314,3.607l-0.18,3.068l-0.228,3.115l-0.181,3.378
			l-0.09,5.413l-0.451,6.541l-0.225,2.976l-0.181,4.555l-0.313,5.458l-0.498,5.05l-0.314,4.51l-0.091,3.293l0.226,3.562l0.36,1.309
			l0.585,1.487l1.038,1.354l0.676,0.946l0.271,1.218l-0.227,2.028l0.09,3.519l0.228,3.652l0.494,1.264l0.363,0.903l0.226,1.263
			l-0.14,1.669l-0.268,1.713l-0.585,1.443l-0.994,1.397l-1.127,1.671l-0.856,1.529l-0.135,1.221l-0.316,1.443l-0.092,0.723h2.312
			c0.045,0.004,0.084,0.022,0.13,0.022h8.328L184.226,99.206z"/>
		<path fill="#FFFFFF" d="M197.109,15.264h-4.115l-1.18,13.177l-0.884,6.529l-0.705,7.939l-0.882,10.06l-0.881,9l-0.881,13.415
			l-1.415,19.06l-0.432,11.392h11.374c0.725,0,1.329-0.482,1.329-1.207V16.592C198.438,15.747,197.955,15.264,197.109,15.264z"/>
	</g>
</g>
</svg>
